<?xml version="1.0" encoding="iso-8859-1"?>
<!-- Generator: Adobe Illustrator 19.0.0, SVG Export Plug-In . SVG Version: 6.00 Build 0)  -->
<svg version="1.1" id="Layer_1" xmlns="http://www.w3.org/2000/svg" xmlns:xlink="http://www.w3.org/1999/xlink" x="0px" y="0px"
	 viewBox="0 0 496.2 496.2" style="enable-background:new 0 0 496.2 496.2;" xml:space="preserve">
<path style="fill:#334D5C;" d="M496.2,248.1C496.2,111.1,385.1,0,248.1,0S0,111.1,0,248.1s111.1,248.1,248.1,248.1
	S496.2,385.1,496.2,248.1z"/>
<rect x="67" y="169.7" style="fill:#B9EFBD;" width="362.3" height="156.8"/>
<g>
	<path style="fill:#71AD71;" d="M423.1,319.3h-350V176.9h350V319.3z M420,180.6H76.2v135.1H420V180.6z"/>
	<path style="fill:#71AD71;" d="M309.9,248.1c0-34.1-27.7-61.8-61.8-61.8s-61.8,27.7-61.8,61.8c0,34.2,27.7,61.8,61.8,61.8
		S309.9,282.3,309.9,248.1z"/>
</g>
<path style="fill:#B9EFBD;" d="M246.5,299.8v-10.2c-4.2-0.6-7.7-1.8-10.3-3.4c-2.6-1.7-4.9-4.3-6.8-7.9c-1.9-3.6-3-8.1-3.4-13.4
	l8.5-1.9c0.6,5.4,1.8,9.4,3.5,12c2.4,3.6,5.2,5.6,8.6,6v-32.3c-3.5-0.8-7-2.4-10.7-4.8c-2.7-1.8-4.8-4.3-6.2-7.5s-2.2-6.8-2.2-10.9
	c0-7.2,2.1-13.1,6.3-17.5c2.9-3,7.1-4.9,12.7-5.5v-4.9h5v4.9c4.9,0.6,8.8,2.3,11.6,5.2c3.7,3.7,6,8.8,6.7,15.2l-8.8,1.5
	c-0.5-4-1.5-7.1-3.1-9.2c-1.6-2.1-3.7-3.5-6.5-4.2v29.3c4.2,1.2,7.1,2.2,8.5,3c2.6,1.4,4.8,3.1,6.4,5.1s2.9,4.4,3.8,7.1
	s1.3,5.7,1.3,8.8c0,7.1-1.9,13-5.6,17.7s-8.5,7.2-14.4,7.5v10.3L246.5,299.8L246.5,299.8z M246.5,210.9c-3.3,0.6-5.8,2.2-7.7,4.8
	s-2.8,5.6-2.8,9.1s0.8,6.4,2.4,8.7c1.6,2.3,4.3,4.2,8.2,5.6v-28.2H246.5z M251.5,281.1c3.3-0.5,6-2.2,8.1-5.1
	c2.1-3,3.2-6.6,3.2-10.9c0-3.7-0.7-6.7-2.2-8.9c-1.5-2.2-4.5-4.2-9.1-6V281.1z"/>
<g>
</g>
<g>
</g>
<g>
</g>
<g>
</g>
<g>
</g>
<g>
</g>
<g>
</g>
<g>
</g>
<g>
</g>
<g>
</g>
<g>
</g>
<g>
</g>
<g>
</g>
<g>
</g>
<g>
</g>
</svg>
